<?xml version="1.0" encoding="UTF-8"?>
<svg version="1.1" xmlns="http://www.w3.org/2000/svg" width="512" height="512">
<path d="M0 0 C1.07698314 -0.0060911 2.15396628 -0.01218221 3.26358527 -0.01845789 C6.86696784 -0.03508681 10.46999701 -0.03031206 14.07341003 -0.0255127 C16.65917325 -0.03285309 19.24493318 -0.04143923 21.83068848 -0.05117798 C28.12235982 -0.07220555 34.41393897 -0.07677435 40.70564131 -0.07499009 C45.82172356 -0.07368103 50.93777713 -0.07749399 56.05385399 -0.08491516 C57.52912432 -0.08701443 59.00439465 -0.08911203 60.47966498 -0.09120798 C61.21401881 -0.09225151 61.94837264 -0.09329504 62.70497962 -0.09437019 C76.58577645 -0.11326205 90.4665204 -0.11222571 104.34732475 -0.10540086 C117.03399859 -0.09982715 129.72047039 -0.12064529 142.40709702 -0.15376133 C155.44546738 -0.18753033 168.48374105 -0.20266261 181.52215594 -0.1980443 C188.83750579 -0.19580272 196.15266894 -0.20099688 203.46798134 -0.22593689 C210.34880878 -0.24919652 217.22920952 -0.24632827 224.11004448 -0.22600937 C226.63273063 -0.22259871 229.15544505 -0.22769068 231.67809296 -0.24199295 C235.12759966 -0.26019766 238.57568225 -0.24742497 242.02514648 -0.22705078 C243.51510713 -0.24582755 243.51510713 -0.24582755 245.03516799 -0.26498365 C252.90046476 -0.16569848 259.48153705 1.97224377 265.35225612 7.37074137 C274.34629311 16.91989941 274.35319508 27.42978011 274.33676147 39.8997345 C274.33902703 41.16047749 274.34129259 42.42122049 274.3436268 43.72016782 C274.34972786 47.20813914 274.3496132 50.69608644 274.34843242 54.18406188 C274.34822799 57.95035855 274.35375124 61.71664758 274.35848999 65.48294067 C274.36678773 72.85744892 274.36954443 80.23194916 274.37010237 87.60646168 C274.37057793 93.60211053 274.37263468 99.59775675 274.37580299 105.59340477 C274.38460705 122.60068871 274.38922274 139.60796635 274.38847252 156.61525259 C274.38841259 157.98984746 274.38841259 157.98984746 274.38835144 159.39221191 C274.38831056 160.30973026 274.38826968 161.22724861 274.38822756 162.17257055 C274.38782112 177.04162487 274.39739071 191.91065386 274.41148981 206.77970085 C274.42586003 222.05548018 274.43275964 237.33124717 274.43189603 252.60703343 C274.43156429 261.17987493 274.43430125 269.75268988 274.44507408 278.32552528 C274.45418756 285.62451307 274.45634735 292.92346226 274.44956466 300.22245327 C274.44630379 303.94418251 274.44622711 307.66583773 274.45491791 311.38755989 C274.46425524 315.42780668 274.45799563 319.46788273 274.45028687 323.50813293 C274.45543043 324.67653271 274.46057399 325.84493248 274.46587342 327.0487383 C274.42134822 337.62104064 273.88271762 346.54020233 266.20304871 354.39440918 C260.11133862 359.58268768 254.69425284 361.22975936 246.75285339 361.06994629 C241.35052431 360.52598712 236.99984845 358.27487986 232.20304871 355.85144043 C231.22007812 355.36800674 230.23710754 354.88457306 229.22434998 354.38648987 C225.87723447 352.73561389 222.54034823 351.06503072 219.20304871 349.39440918 C217.33148367 348.46537623 215.45886052 347.53850254 213.58608627 346.61190987 C205.39967034 342.56147922 197.22998556 338.47798568 189.0632782 334.38800049 C186.24437597 332.97724486 183.42398295 331.5694833 180.60363674 330.16161728 C166.92705011 323.33272005 153.27318313 316.47697884 139.78630066 309.2779541 C131.96866661 305.12699854 125.19453405 302.01915024 116.20304871 303.39440918 C107.50351734 306.33598249 99.36268133 310.75394077 91.24791336 315.00674438 C87.63315543 316.90010617 84.00907488 318.77548388 80.38566589 320.65222168 C79.6325091 321.04267166 78.8793523 321.43312164 78.10337257 321.83540344 C69.84078347 326.11211028 61.53052061 330.29256643 53.21086121 334.45690918 C52.47289055 334.82632629 51.73491989 335.19574341 50.97458649 335.57635498 C47.25916668 337.43549298 43.5427599 339.29264458 39.8256073 341.14831543 C35.99497122 343.06070549 32.16622962 344.97685743 28.33793831 346.89393616 C25.34304782 348.39317988 22.34721592 349.89053422 19.35108566 351.38729858 C17.93539506 352.09481207 16.51999753 352.80291229 15.10490799 353.5116272 C13.15827476 354.48620828 11.21038646 355.45823282 9.26213074 356.42956543 C8.16031464 356.98007568 7.05849854 357.53058594 5.92329407 358.09777832 C-0.87509267 361.33829411 -8.94336113 361.60780672 -16.25007629 359.78112793 C-22.20062292 357.12212383 -27.10354981 351.98769267 -29.87102944 346.11528796 C-30.87752557 343.15763668 -31.05076733 340.88071609 -31.05701351 337.76269245 C-31.0640791 336.63376743 -31.07114469 335.5048424 -31.07842439 334.34170753 C-31.07600931 333.10631663 -31.07359423 331.87092574 -31.07110596 330.59809875 C-31.07634264 329.28189488 -31.08157931 327.965691 -31.08697468 326.60960215 C-31.10115269 322.95747621 -31.10281801 319.30543538 -31.10237777 315.65328586 C-31.10402617 311.7137958 -31.11709318 307.77434079 -31.12857056 303.83486938 C-31.15141856 295.22113288 -31.15934104 286.60742101 -31.164397 277.9936583 C-31.16765444 272.61397513 -31.17417723 267.23429911 -31.18139839 261.85461998 C-31.20096454 246.95640321 -31.2173685 232.0581931 -31.22027493 217.15996265 C-31.2204625 216.20661545 -31.22065007 215.25326824 -31.22084332 214.27103172 C-31.22120957 212.3384035 -31.22157327 210.40577529 -31.22193443 208.47314707 C-31.22211724 207.51380175 -31.22230005 206.55445643 -31.2224884 205.56604004 C-31.22266895 204.60552208 -31.2228495 203.64500412 -31.22303552 202.65537956 C-31.22657658 187.09422849 -31.25359461 171.53321587 -31.29098629 155.97211281 C-31.32907888 139.99126344 -31.34843247 124.01048275 -31.34873444 108.02958697 C-31.34931881 99.05871094 -31.35779806 90.08800002 -31.3867321 81.11716652 C-31.4112588 73.47771695 -31.41852027 65.83849271 -31.40348458 58.1990144 C-31.39632072 54.30298824 -31.39714992 50.40740689 -31.41989517 46.51143074 C-31.44054458 42.94014319 -31.43783043 39.36964074 -31.41702033 35.79836114 C-31.4118946 33.90415508 -31.43125944 32.00993076 -31.45168203 30.11582786 C-31.36776789 21.55116659 -29.75797084 14.66401073 -23.80716509 8.24960929 C-16.48347748 1.28531927 -9.79895932 -0.05220817 0 0 Z " fill="#FFB32C" transform="translate(134.7969512939453,75.6055908203125)"/>
<path d="M0 0 C4.71242258 1.72492449 5.72258993 4.94196043 7.79296875 9.32421875 C8.41437744 10.57319946 8.41437744 10.57319946 9.04833984 11.84741211 C9.94099736 13.64552688 10.82444369 15.44823724 11.69970703 17.25488281 C13.16621011 20.26123959 14.67514273 23.24310451 16.1953125 26.22265625 C20.3394273 34.37571584 20.3394273 34.37571584 22.05078125 37.796875 C22.44797363 38.58715088 22.84516602 39.37742676 23.25439453 40.19165039 C24.10546875 42.13671875 24.10546875 42.13671875 24.10546875 44.13671875 C24.92523193 44.24218018 25.74499512 44.3476416 26.58959961 44.45629883 C54.01915376 48.00211269 54.01915376 48.00211269 64.23046875 49.63671875 C65.49117187 49.83265625 66.751875 50.02859375 68.05078125 50.23046875 C71.47654176 51.24680691 72.95160452 52.31312062 75.10546875 55.13671875 C75.10546875 59.56030882 73.03258951 61.98443486 70.10546875 65.13671875 C68.95046675 66.16282594 67.78372707 67.17578372 66.609375 68.1796875 C61.46090252 72.66170809 56.50769915 77.32518305 51.60546875 82.07421875 C50.68765625 82.92951172 49.76984375 83.78480469 48.82421875 84.66601562 C47.95796875 85.51099609 47.09171875 86.35597656 46.19921875 87.2265625 C45.41224609 87.97800537 44.62527344 88.72944824 43.81445312 89.50366211 C40.23099276 95.02475069 42.26883761 102.17865974 43.41796875 108.328125 C43.61773315 109.45153542 43.61773315 109.45153542 43.8215332 110.59764099 C44.24301544 112.96605573 44.67322312 115.33274645 45.10546875 117.69921875 C45.53740427 120.06930788 45.96713249 122.43967705 46.3894043 124.81150818 C46.65078425 126.27954677 46.9175337 127.74664361 47.19067383 129.21253967 C49.14444974 140.18098982 49.14444974 140.18098982 47.04296875 144.13671875 C43.95841807 145.72874491 41.31520344 145.05100471 38.10546875 144.13671875 C33.90911189 142.28356803 29.89165707 140.12568891 25.85546875 137.94921875 C24.25251953 137.10133789 24.25251953 137.10133789 22.6171875 136.23632812 C14.19111 131.7673332 14.19111 131.7673332 10.06835938 129.37255859 C9.11638672 128.82422363 8.16441406 128.27588867 7.18359375 127.7109375 C6.34731445 127.21553467 5.51103516 126.72013184 4.64941406 126.2097168 C0.27913293 124.36639764 -2.73134875 124.66511031 -7.0949707 126.43432617 C-8.2212085 127.03092041 -9.34744629 127.62751465 -10.5078125 128.2421875 C-11.12166306 128.56326981 -11.73551361 128.88435211 -12.3679657 129.21516418 C-14.32057989 130.24012821 -16.26365157 131.28187154 -18.20703125 132.32421875 C-19.50006997 133.00566101 -20.79368564 133.6860097 -22.08789062 134.36523438 C-28.12601873 137.54606414 -34.12590919 140.76027008 -39.95385742 144.31762695 C-42.46045009 145.37557366 -44.19937573 145.48212725 -46.89453125 145.13671875 C-48.71655273 144.02978516 -48.71655273 144.02978516 -49.89453125 142.13671875 C-50.43851397 132.70067967 -48.12695677 122.98270866 -46.33203125 113.76171875 C-45.86569191 111.35936457 -45.40586871 108.95573471 -44.953125 106.55078125 C-44.64846313 104.9877124 -44.64846313 104.9877124 -44.33764648 103.39306641 C-44.19141846 102.31847168 -44.04519043 101.24387695 -43.89453125 100.13671875 C-43.76267677 99.17142494 -43.76267677 99.17142494 -43.62815857 98.18663025 C-43.39871294 95.21758026 -43.35791797 93.03492198 -44.91242981 90.43292236 C-46.39558119 88.71106885 -47.95940235 87.17097304 -49.625 85.625 C-50.21243484 85.04888474 -50.79986969 84.47276947 -51.40510559 83.87919617 C-53.27939719 82.04947329 -55.17950447 80.24951878 -57.08203125 78.44921875 C-58.34232127 77.22909733 -59.60080558 76.00710782 -60.85742188 74.78320312 C-63.17676591 72.52897208 -65.50607564 70.28625519 -67.84838867 68.0559082 C-70.57281119 65.45766834 -73.24315261 62.80964602 -75.89453125 60.13671875 C-76.22453125 59.80671875 -76.55453125 59.47671875 -76.89453125 59.13671875 C-77.35894779 54.72476165 -77.35894779 54.72476165 -75.6227417 52.52638245 C-72.62783797 50.11816359 -68.80549097 50.08627577 -65.09765625 49.6015625 C-63.79716339 49.41528038 -63.79716339 49.41528038 -62.47039795 49.22523499 C-59.6966261 48.82972305 -56.9208925 48.45108622 -54.14453125 48.07421875 C-51.3829086 47.69116896 -48.6218784 47.30448676 -45.86151123 46.91249084 C-44.14491569 46.66957282 -42.42752864 46.43216274 -40.70928955 46.20115662 C-32.34178977 45.42367138 -32.34178977 45.42367138 -25.35644531 41.51464844 C-25.04416992 40.86915039 -24.73189453 40.22365234 -24.41015625 39.55859375 C-24.03769775 38.81988037 -23.66523926 38.08116699 -23.28149414 37.32006836 C-22.90629639 36.51706299 -22.53109863 35.71405762 -22.14453125 34.88671875 C-21.73259521 34.05857666 -21.32065918 33.23043457 -20.89624023 32.37719727 C-19.5396595 29.64089636 -18.21685401 26.88972061 -16.89453125 24.13671875 C-15.41059087 21.09854867 -13.91890605 18.06447267 -12.41894531 15.03417969 C-11.45641865 13.08533647 -10.50366314 11.13163186 -9.56152344 9.17285156 C-9.12614258 8.28307617 -8.69076172 7.39330078 -8.2421875 6.4765625 C-7.86070557 5.68628662 -7.47922363 4.89601074 -7.08618164 4.08178711 C-5.21098606 1.02100383 -3.54359556 0.16737631 0 0 Z " fill="#FFFBEC" transform="translate(256.89453125,150.86328125)"/>
</svg>
