<?xml version="1.0" encoding="UTF-8"?>
<svg version="1.1" xmlns="http://www.w3.org/2000/svg" width="512" height="512">
<path d="M0 0 C1.31484375 1.02867188 1.31484375 1.02867188 2.65625 2.078125 C13.17132221 10.47809648 22.84336481 19.76481204 32.375 29.25 C33.02879639 29.89912354 33.68259277 30.54824707 34.35620117 31.21704102 C38.26922394 35.14301916 41.96660913 39.18781584 45.54150391 43.42480469 C47.5390377 45.58216794 48.77339514 45.96311084 51.6875 46.4375 C57.79293263 45.63112211 61.30343975 40.88430257 65.14453125 36.37109375 C69.31756826 31.57052822 73.75124939 27.0567442 78.25 22.5625 C79.08974365 21.72356201 79.9294873 20.88462402 80.79467773 20.02026367 C86.60478081 14.26735879 92.51211432 8.98006282 99 4 C99.77730469 3.34386719 100.55460937 2.68773438 101.35546875 2.01171875 C125.98597741 -18.68112295 158.00245082 -28.95508316 190 -27 C216.4100636 -24.67600231 240.21568924 -12.27384031 257.4765625 7.8515625 C278.2307274 33.17196077 286.46788038 65.28026593 283.3125 97.5625 C277.09063417 152.42962407 233.16177632 193.8802938 196.0625 231.0625 C195.38069672 231.74698212 194.69889343 232.43146423 193.99642944 233.13668823 C180.75617483 246.41633712 180.75617483 246.41633712 174.64477539 251.6003418 C171.90572225 253.93119999 169.3100994 256.41501997 166.6875 258.875 C161.91589105 263.31465293 157.0183201 267.51659141 151.93359375 271.59765625 C148.45095703 274.44961575 145.07238707 277.40842125 141.6875 280.375 C135.25772357 285.9865592 128.65816238 291.31760238 121.90136719 296.52832031 C119.85647509 298.1110899 117.8221568 299.70679524 115.7890625 301.3046875 C105.79149488 309.14881412 95.65406811 316.77967273 85.38330078 324.26220703 C82.96915134 326.02249342 80.56066967 327.79035123 78.15234375 329.55859375 C55.93930546 345.81536839 55.93930546 345.81536839 49 345 C45.984375 343.48828125 45.984375 343.48828125 42.75 341.3125 C42.15429199 340.91458252 41.55858398 340.51666504 40.94482422 340.10668945 C27.29229451 330.89131935 14.12016845 320.95153723 1 311 C0.44006348 310.57654297 -0.11987305 310.15308594 -0.69677734 309.71679688 C-9.34906208 303.16463166 -17.78299584 296.36286347 -26.1796875 289.48828125 C-27.77261865 288.18590621 -29.3702952 286.88933968 -30.96875 285.59375 C-41.14510654 277.33294292 -51.08880674 268.8027514 -60.79296875 259.9921875 C-62.73626001 258.23806619 -64.70359448 256.52027306 -66.6875 254.8125 C-78.22922508 244.72760118 -89.17515359 233.98962296 -99.99169922 223.13867188 C-102.023262 221.10167579 -104.06021836 219.07018049 -106.09765625 217.0390625 C-107.41959207 215.71646683 -108.74121817 214.39356151 -110.0625 213.0703125 C-110.65740234 212.47743439 -111.25230469 211.88455627 -111.86523438 211.27371216 C-115.56232003 207.556242 -119.06633956 203.71291973 -122.49139404 199.74328613 C-124.36541036 197.57774606 -126.30699567 195.47864642 -128.25 193.375 C-132.79324492 188.3397624 -136.95850757 183.06339238 -141.10546875 177.703125 C-143.04712086 175.19904961 -145.02847076 172.73624285 -147.05078125 170.296875 C-170.42059395 142.02173751 -182.82953188 107.87215601 -179.53588867 70.95751953 C-176.46327211 41.4536844 -162.53653383 12.9604355 -139.42578125 -6.015625 C-98.25087357 -38.23640036 -39.55257598 -31.49556976 0 0 Z " fill="#FE5E54" transform="translate(204,97)"/>
<path d="M0 0 C17.85120434 20.8061656 23.65846114 51.46554203 21.7265625 78.09375 C16.8206863 135.2570449 -27.50336498 177.54245121 -65.9375 216.0625 C-66.61930328 216.74698212 -67.30110657 217.43146423 -68.00357056 218.13668823 C-81.24382517 231.41633712 -81.24382517 231.41633712 -87.35522461 236.6003418 C-90.09427775 238.93119999 -92.6899006 241.41501997 -95.3125 243.875 C-100.08410895 248.31465293 -104.9816799 252.51659141 -110.06640625 256.59765625 C-113.54904297 259.44961575 -116.92761293 262.40842125 -120.3125 265.375 C-126.74227643 270.9865592 -133.34183762 276.31760238 -140.09863281 281.52832031 C-142.14352491 283.1110899 -144.1778432 284.70679524 -146.2109375 286.3046875 C-156.20850512 294.14881412 -166.34593189 301.77967273 -176.61669922 309.26220703 C-179.03084866 311.02249342 -181.43933033 312.79035123 -183.84765625 314.55859375 C-206.06069454 330.81536839 -206.06069454 330.81536839 -213 330 C-216.015625 328.48828125 -216.015625 328.48828125 -219.25 326.3125 C-219.84570801 325.91458252 -220.44141602 325.51666504 -221.05517578 325.10668945 C-234.70770549 315.89131935 -247.87983155 305.95153723 -261 296 C-261.55993652 295.57654297 -262.11987305 295.15308594 -262.69677734 294.71679688 C-271.34906208 288.16463166 -279.78299584 281.36286347 -288.1796875 274.48828125 C-289.77261865 273.18590621 -291.3702952 271.88933968 -292.96875 270.59375 C-303.14510654 262.33294292 -313.08880674 253.8027514 -322.79296875 244.9921875 C-324.73626001 243.23806619 -326.70359448 241.52027306 -328.6875 239.8125 C-340.22922508 229.72760118 -351.17515359 218.98962296 -361.99169922 208.13867188 C-364.023262 206.10167579 -366.06021836 204.07018049 -368.09765625 202.0390625 C-369.41959207 200.71646683 -370.74121817 199.39356151 -372.0625 198.0703125 C-372.65740234 197.47743439 -373.25230469 196.88455627 -373.86523438 196.27371216 C-377.56232003 192.556242 -381.06633956 188.71291973 -384.49139404 184.74328613 C-386.36541036 182.57774606 -388.30699567 180.47864642 -390.25 178.375 C-394.79324492 173.3397624 -398.95850757 168.06339238 -403.10546875 162.703125 C-405.04712086 160.19904961 -407.02847076 157.73624285 -409.05078125 155.296875 C-418.80082007 143.49631256 -427.80001522 130.53734875 -433 116 C-432.505 115.01 -432.505 115.01 -432 114 C-431.49569458 114.67035278 -431.49569458 114.67035278 -430.98120117 115.35424805 C-424.38802009 124.09852301 -417.70315818 132.70302637 -410.55859375 141.00390625 C-408.08675417 143.89841153 -405.69461933 146.84401283 -403.3125 149.8125 C-400.11831705 153.74117422 -396.78945732 157.37089272 -393.1171875 160.85546875 C-391.35498845 162.64042683 -389.75171616 164.45133627 -388.12890625 166.359375 C-383.02105244 172.24087848 -377.46317427 177.68587851 -371.94848633 183.18188477 C-370.06671726 185.05829475 -368.19035262 186.93998969 -366.31445312 188.82226562 C-360.91573958 194.22397595 -355.53252997 199.58280873 -349.71118164 204.53393555 C-346.77747926 207.04740149 -343.99696159 209.72459516 -341.1875 212.375 C-336.14089056 217.10196376 -330.96665852 221.57509143 -325.56640625 225.8984375 C-323.02440637 227.98001427 -320.60470665 230.1503838 -318.1875 232.375 C-313.8122041 236.35755281 -309.25270734 240.0181807 -304.58129883 243.64111328 C-300.78487785 246.58775546 -297.04190563 249.58793949 -293.33105469 252.64160156 C-261.42173805 282.17784052 -261.42173805 282.17784052 -224.421875 301.41796875 C-219.40295468 300.80492711 -216.28234015 298.2350066 -212.25 295.3125 C-211.41799072 294.72525146 -210.58598145 294.13800293 -209.72875977 293.53295898 C-207.14277866 291.70188403 -204.57133751 289.85156061 -202 288 C-200.4629928 286.91039506 -198.92526131 285.82181091 -197.38671875 284.734375 C-187.40759886 277.64366077 -177.70724288 270.21976121 -168.09130859 262.64599609 C-166.11269362 261.08869722 -164.12958832 259.53735583 -162.14453125 257.98828125 C-155.91194423 253.11925552 -149.73349044 248.19345792 -143.62890625 243.1640625 C-141.89271842 241.73486776 -140.1506136 240.31282724 -138.40234375 238.8984375 C-126.90654041 229.58666749 -115.80501006 219.85095822 -104.984375 209.765625 C-102.33824984 207.30199123 -99.64454084 204.89667947 -96.9375 202.5 C-92.56476255 198.58942179 -88.43758639 194.47299346 -84.32006836 190.29858398 C-81.6382112 187.59253091 -78.92240281 185.00591977 -76 182.5625 C-71.39792012 178.6313599 -67.41329588 174.13922496 -63.3515625 169.66796875 C-60.36576486 166.38287662 -57.32040155 163.15788942 -54.26538086 159.93725586 C-48.72103712 154.08239006 -43.31199674 148.19741992 -38.29296875 141.87890625 C-36.55133795 139.69222498 -34.78634519 137.54177682 -32.98828125 135.40234375 C-6.76092202 104.03167168 8.3014914 70.58725215 6 29 C5.12013545 20.01425688 3.07317488 11.48781633 0 3 C0 2.01 0 1.02 0 0 Z " fill="#FE4134" transform="translate(466,112)"/>
</svg>
