<?xml version="1.0" encoding="UTF-8"?>
<svg version="1.1" xmlns="http://www.w3.org/2000/svg" width="512" height="512">
<path d="M0 0 C0.99818929 -0.00445784 1.99637858 -0.00891569 3.02481604 -0.01350862 C4.11419549 -0.01332426 5.20357493 -0.01313989 6.32596588 -0.01294994 C7.48896163 -0.01662663 8.65195737 -0.02030332 9.85019541 -0.02409142 C13.07465719 -0.03319927 16.29908905 -0.03782379 19.52356148 -0.04048073 C23.00297202 -0.044392 26.48236793 -0.05396981 29.9617691 -0.0626936 C38.36322857 -0.08243574 46.76468921 -0.09252177 55.16616607 -0.10142139 C59.12635994 -0.10580834 63.08655248 -0.11117412 67.0467453 -0.11641026 C80.21813174 -0.13342096 93.38951735 -0.1479137 106.56091309 -0.155159 C109.97726696 -0.15706877 113.39362082 -0.15898912 116.80997467 -0.16094494 C117.65905295 -0.16142868 118.50813123 -0.16191242 119.38293916 -0.16241082 C133.12818245 -0.17070578 146.87333856 -0.19603437 160.6185438 -0.22852562 C174.74279161 -0.26163956 188.86699517 -0.27961171 202.99128199 -0.28280324 C210.91651219 -0.28496442 218.84161529 -0.29365542 226.76680756 -0.31926441 C233.51828542 -0.34103081 240.26960531 -0.34899281 247.02111429 -0.33929763 C250.46178583 -0.3347699 253.90213184 -0.33654898 257.34275818 -0.35605907 C261.08450255 -0.3738174 264.82543097 -0.36665119 268.56717682 -0.35352612 C269.63871049 -0.36449536 270.71024417 -0.37546461 271.81424856 -0.38676625 C286.67092084 -0.26166606 299.0348119 5.30578315 309.76700592 15.44672108 C319.81659624 26.052628 325.07031857 39.29223323 325.08593369 53.86450005 C325.08798632 54.5192406 325.09003895 55.17398115 325.09215379 55.84856233 C325.09780272 58.03983474 325.09636915 60.23104388 325.09494781 62.42232227 C325.09753267 64.01040927 325.10054616 65.59849562 325.10395122 67.18658108 C325.11201049 71.54893776 325.11381019 75.91127798 325.11454868 80.27364123 C325.11640112 84.97935433 325.12394946 89.68505892 325.1306839 94.3907671 C325.1442605 104.68021155 325.150291 114.9696521 325.15469456 125.25910401 C325.15745833 131.68591631 325.16169595 138.1127271 325.16619873 144.53953838 C325.17839092 162.33899211 325.18869007 180.13844464 325.19207382 197.93790245 C325.19229339 199.07691936 325.19251295 200.21593627 325.19273917 201.38946884 C325.19295745 202.5311892 325.19317573 203.67290955 325.19340062 204.84922749 C325.19384409 207.16273121 325.19429065 209.47623493 325.1947403 211.78973866 C325.19496173 212.93731291 325.19518315 214.08488717 325.19541129 215.2672364 C325.19935805 233.85582082 325.21680856 252.444366 325.24009982 271.03293527 C325.26382821 290.12474906 325.27627636 309.21654318 325.27744174 328.30837196 C325.2783577 339.02476827 325.28409019 349.74111348 325.30226135 360.45749569 C325.31768245 369.58412316 325.32277096 378.71068374 325.31452325 387.83732177 C325.31062377 392.49106175 325.31151196 397.14466708 325.3255806 401.79839039 C325.33836168 406.06536815 325.33708527 410.33211067 325.32498989 414.5990883 C325.32304014 416.13614446 325.32607762 417.67321752 325.33483425 419.21024997 C325.43179396 437.39225937 321.90195972 451.50790307 309.17325592 464.91547108 C298.26084105 475.82788595 286.00089103 481.07979003 270.39200592 481.50922108 C252.61397148 481.01657675 241.05480195 472.76551465 227.96964264 461.80218983 C224.95291737 459.30518631 221.86221661 456.90766119 218.76700592 454.50922108 C213.59336023 450.47884562 208.55837878 446.31072493 203.57144928 442.05218983 C199.57495254 438.64289093 195.50709963 435.34000455 191.39200592 432.07562733 C188.8533765 430.05367409 186.33917262 428.00449838 183.82950592 425.94672108 C181.87123025 424.34248395 179.91292552 422.73828249 177.95450592 421.13422108 C177.34800201 420.63728748 176.74149811 420.14035389 176.1166153 419.6283617 C171.41175168 415.77722209 166.69183027 411.94536402 161.95450592 408.13422108 C161.02758942 407.38712879 161.02758942 407.38712879 160.08194733 406.62494373 C158.35934912 405.24339842 156.6277521 403.87419302 154.89200592 402.50922108 C153.91102936 401.73320545 152.9300528 400.95718983 151.91934967 400.15765858 C146.39646416 396.38841655 140.76903452 393.88282582 133.95450592 395.13422108 C126.20529561 397.65071721 120.38723122 402.89924154 114.37638092 408.17328358 C111.00196229 411.1273527 107.50116026 413.89112098 103.95450592 416.63422108 C99.3627842 420.20034841 94.8703687 423.85255135 90.45450592 427.63422108 C86.11694517 431.34660104 81.7110256 434.94136644 77.20450592 438.44672108 C71.92703698 442.55306214 66.73449973 446.75016274 61.57950592 451.00922108 C60.86657379 451.59558338 60.15364166 452.18194569 59.41910553 452.78607655 C55.85752722 455.71876282 52.31720691 458.67186395 48.80997467 461.66937733 C35.82562559 472.66188892 23.19192336 480.50971432 5.64200592 480.44672108 C4.75577545 480.46283436 3.86954498 480.47894764 2.95645905 480.4955492 C-10.97368709 480.50570978 -23.66640287 474.58371298 -33.85799408 465.19672108 C-46.83551711 451.4223326 -49.3556392 435.66468451 -49.30619049 417.35837269 C-49.30921474 415.76611969 -49.31310559 414.17386814 -49.31778306 412.58161914 C-49.3280365 408.22634727 -49.32588802 403.87115796 -49.32160246 399.51587939 C-49.31913042 394.8109329 -49.32815532 390.10600603 -49.33563995 385.40106678 C-49.34837554 376.19145313 -49.35018208 366.98186866 -49.34783969 357.77224769 C-49.34605515 350.28498058 -49.34780909 342.79772232 -49.35206413 335.31045628 C-49.35265932 334.24398641 -49.35325451 333.17751655 -49.35386774 332.07872941 C-49.35507951 329.91205153 -49.35629365 327.74537364 -49.35751011 325.57869576 C-49.36838119 305.26931727 -49.36622516 284.9599554 -49.36012527 264.65057598 C-49.35495611 246.08096706 -49.3662123 227.5114106 -49.38522349 208.94181205 C-49.40460658 189.86230319 -49.41285708 170.78281913 -49.40910023 151.70330036 C-49.40718896 140.99650113 -49.40966865 130.28974655 -49.42381477 119.58295536 C-49.43573551 110.4684686 -49.43712563 101.35405398 -49.42502461 92.23956622 C-49.41914091 87.59200166 -49.41802244 82.94456901 -49.43002701 78.29701328 C-49.44090237 74.03702646 -49.43776286 69.77728143 -49.42376532 65.51730584 C-49.42112296 63.98173529 -49.42347039 62.4461457 -49.43150119 60.91059388 C-49.51687282 43.35938371 -45.84071451 28.33375032 -33.38924408 15.38422108 C-24.07875845 6.44615487 -13.2398418 0.02753999 0 0 Z M-8.92049408 37.75922108 C-9.63979095 38.3908617 -10.35908783 39.02250233 -11.10018158 39.67328358 C-17.16636513 47.3473712 -16.47092719 56.19513323 -16.42644501 65.46869373 C-16.42990412 67.03732408 -16.43467038 68.605952 -16.44062674 70.17457485 C-16.45313164 74.47371967 -16.44696868 78.7726643 -16.43766809 83.07180977 C-16.43087586 87.71264269 -16.44135969 92.35344136 -16.44960785 96.99426746 C-16.4629455 106.0811753 -16.46006729 115.16800878 -16.45136993 124.25491953 C-16.44459393 131.64025037 -16.4436763 139.02556038 -16.44694138 146.41089344 C-16.44740107 147.46213701 -16.44786077 148.51338058 -16.4483344 149.59648001 C-16.44929358 151.7320819 -16.45026622 153.86768377 -16.45125218 156.00328565 C-16.45980617 176.02736284 -16.44997179 196.05139882 -16.43385108 216.07546926 C-16.42044789 233.25588112 -16.42277598 250.43623218 -16.43660736 267.61664295 C-16.452663 287.5692231 -16.45898219 307.52176713 -16.44977057 327.47435284 C-16.44881493 329.60208479 -16.44787181 331.72981675 -16.44694138 333.85754871 C-16.44647855 334.90442502 -16.44601572 335.95130132 -16.44553887 337.02990115 C-16.44294894 344.4060936 -16.44732006 351.78226313 -16.45438004 359.15845203 C-16.46279504 368.14794265 -16.46051484 377.13735468 -16.4445378 386.1268363 C-16.43665514 390.71313044 -16.43356346 395.29929357 -16.44348526 399.88558674 C-16.45243269 404.08500426 -16.44749851 408.28416947 -16.4315526 412.48356414 C-16.42820501 414.00162436 -16.4298984 415.51970594 -16.43717997 417.03775239 C-16.67397035 429.50809271 -16.67397035 429.50809271 -11.17830658 440.37640858 C-5.04259564 445.36615016 -0.70097633 447.73093999 7.35684967 447.49359608 C16.61744014 446.21243168 23.64507858 438.35571974 30.42032623 432.45502186 C32.49433115 430.66947657 34.62274037 428.95947204 36.76700592 427.25922108 C41.06275608 423.85176821 45.32605226 420.40669212 49.57950592 416.94672108 C50.26246735 416.39129627 50.94542877 415.83587147 51.649086 415.26361561 C53.05208371 414.1224432 54.45499633 412.98116617 55.85782623 411.83978748 C59.88719377 408.56205557 63.91914402 405.28750147 67.95084381 402.01263905 C71.29850548 399.29314927 74.64513443 396.57240821 77.98966217 393.84906483 C81.31435784 391.14206558 84.64422907 388.44151801 87.97550201 385.74261951 C89.96989364 384.121715 91.95656302 382.49168076 93.94278717 380.86078358 C108.05744068 369.32602001 122.78279534 359.53406256 141.95450592 361.13422108 C158.15520787 363.17098753 169.44102755 370.13996156 181.4628067 380.82806873 C183.61233972 382.7102294 185.8394941 384.48632072 188.07950592 386.25922108 C192.37293085 389.66506297 196.61912293 393.12424811 200.85684967 396.59906483 C204.44356683 399.5377074 208.04264155 402.46109303 211.64200592 405.38422108 C212.66028473 406.21119495 212.66028473 406.21119495 213.69913483 407.05487537 C215.09069773 408.18488718 216.48229958 409.31485102 217.87393951 410.44476795 C220.57215846 412.6357648 223.26974267 414.82754209 225.96720123 417.01947498 C227.29064948 418.09481733 228.61421695 419.17001297 229.93790436 420.24506092 C233.36117731 423.02552489 236.7824603 425.8083853 240.20059967 428.59515858 C243.54203684 431.31891273 246.88986749 434.03461144 250.24210358 436.74506092 C251.74962296 437.96801291 253.24919138 439.20075218 254.74747467 440.43500233 C260.54037908 445.12172398 265.15604905 447.65204618 272.88028717 447.37250233 C279.95251182 446.56006221 283.92226594 443.7089937 288.50919342 438.36468983 C291.57718266 433.63003616 292.2047863 429.03872635 292.20898151 423.48367977 C292.21218799 422.83757148 292.21539447 422.19146318 292.21869811 421.52577585 C292.22699005 419.36384533 292.22107678 417.20219243 292.21520233 415.04025745 C292.21822339 413.47335467 292.22211264 411.90645337 292.2267949 410.33955467 C292.23708958 406.03593222 292.23488933 401.73239294 292.2306143 397.42876363 C292.22814975 392.78653674 292.23715789 388.14433001 292.24465179 383.50211048 C292.2574084 374.40826066 292.25919128 365.31444036 292.25685153 356.2205831 C292.25506927 348.82948645 292.25681605 341.43839877 292.26107597 334.0473032 C292.26196876 332.47003138 292.26196876 332.47003138 292.26287958 330.86089548 C292.26409132 328.72481053 292.26530545 326.58872558 292.26652195 324.45264064 C292.27740123 304.41522997 292.27523318 284.37783614 292.26913711 264.34042452 C292.26396776 246.00712025 292.27522318 227.67386911 292.29423533 209.34057535 C292.31360445 190.51885519 292.32187134 171.69716018 292.31811208 152.87542999 C292.3161986 142.30730909 292.31870178 131.73923342 292.33282661 121.17112064 C292.3447296 112.17426715 292.34615747 103.17748672 292.33403645 94.18063225 C292.32814013 89.59029796 292.32706913 85.00009737 292.33903885 80.40977192 C292.34987171 76.20657968 292.3468253 72.0036332 292.33277716 67.80045258 C292.33012307 66.28098429 292.33251913 64.7614969 292.34051303 63.24204732 C292.59906266 50.74617227 292.59906266 50.74617227 287.05216217 39.89203358 C286.38056061 39.35320545 285.70895905 38.81437733 285.01700592 38.25922108 C284.34798248 37.7049242 283.67895905 37.15062733 282.98966217 36.57953358 C275.98136319 31.60243066 268.48608309 31.98781338 260.19515228 32.00050831 C259.1101509 31.99824275 258.02514951 31.9959772 256.9072693 31.99364299 C253.27090441 31.9873119 249.63457688 31.98813178 245.99820709 31.98895741 C243.39126792 31.98596536 240.78432919 31.98256273 238.17739105 31.97877979 C231.83045751 31.97048182 225.48353325 31.96772534 219.13659474 31.96716741 C213.9761536 31.96669185 208.81571552 31.96463506 203.65527534 31.96146679 C189.01653109 31.95266252 174.37779417 31.94804705 159.73904725 31.94879726 C158.95026336 31.94883722 158.16147947 31.94887718 157.34879303 31.94891834 C156.5590433 31.94895922 155.76929358 31.9490001 154.95561204 31.94904222 C142.15833855 31.94944862 129.36109449 31.93988002 116.5638295 31.92577998 C103.41589972 31.91140816 90.26798428 31.90451024 77.12004644 31.90537375 C69.74161842 31.90570544 62.36322127 31.90297052 54.98480034 31.8921957 C48.04501216 31.88212617 41.10529013 31.8824343 34.16549873 31.88971233 C31.61981995 31.8907584 29.0741371 31.88839399 26.52846527 31.88235188 C23.05050371 31.87463227 19.57276722 31.87927678 16.09481049 31.88698292 C14.58778455 31.87926757 14.58778455 31.87926757 13.05031365 31.87139636 C5.09258015 31.91029506 -2.80591932 32.13739593 -8.92049408 37.75922108 Z " fill="white" transform="translate(118.04549407958984,15.865778923034668)"/>
</svg>
