<?xml version="1.0" encoding="UTF-8"?>
<svg version="1.1" xmlns="http://www.w3.org/2000/svg" width="512" height="512">
<path d="M0 0 C2.60786755 0.7677461 5.17315555 1.6173373 7.74316406 2.50357056 C8.70788132 2.82370621 9.67259857 3.14384186 10.66654968 3.47367859 C13.81088446 4.51965627 16.94876636 5.58372138 20.08691406 6.64810181 C23.37419048 7.74796181 26.66295679 8.84327422 29.95195007 9.93798828 C32.18706445 10.6819957 34.42169163 11.42746831 36.65583801 12.17437744 C43.98839233 14.61988645 51.34244222 16.98269215 58.72363281 19.27700806 C60.14115341 19.71879646 60.14115341 19.71879646 61.58731079 20.16950989 C65.19205479 21.29152997 68.79713483 22.41202017 72.40771484 23.51513672 C74.85941432 24.26473834 77.30732268 25.02573832 79.75488281 25.78872681 C80.46521164 26.00166885 81.17554047 26.2146109 81.90739441 26.43400574 C86.33920207 27.82820188 89.88927856 29.64676399 93.58691406 32.46060181 C95.24094072 35.76865513 95.33300896 38.91060218 94.58691406 42.46060181 C93.39135742 44.25112915 93.39135742 44.25112915 91.73925781 46.04653931 C90.78092041 47.08947144 90.78092041 47.08947144 89.80322266 48.1534729 C85.97629743 52.13721859 82.09376118 56.06191749 78.1713562 59.95132446 C76.6121768 61.4975292 75.05632785 63.04702077 73.5012207 64.59732056 C69.64125603 68.44404406 65.77581504 72.28524897 61.91052246 76.12661743 C58.63241964 79.38485877 55.35646414 82.64523171 52.08322144 85.90835571 C50.56381941 87.42136233 49.04139703 88.9312815 47.51879883 90.44107056 C42.83479874 95.10048629 38.26534773 99.80740703 33.97549438 104.83563232 C32.05319547 107.08517959 30.03115289 109.22121595 27.96191406 111.33560181 C27.24777344 112.07552368 26.53363281 112.81544556 25.79785156 113.57778931 C22.52483078 116.36506142 19.88526005 117.48765068 15.58691406 117.39810181 C11.71636716 116.1885559 10.20627254 114.54147504 7.58691406 111.46060181 C6.37670898 108.23086548 6.37670898 108.23086548 5.56738281 104.62857056 C5.41908524 103.99195999 5.27078766 103.35534943 5.11799622 102.69944763 C4.65299877 100.68578865 4.21340818 98.66757117 3.77441406 96.64810181 C3.46162946 95.27337215 3.147192 93.89901746 2.83105469 92.52505493 C2.06667978 89.17356494 1.31933408 85.81919366 0.58691406 82.46060181 C-15.90288735 90.04266269 -29.82766288 100.5236192 -43.41308594 112.46060181 C-44.18265625 113.10771118 -44.95222656 113.75482056 -45.74511719 114.42153931 C-50.46045053 118.40658202 -54.45339284 122.73346303 -58.41308594 127.46060181 C-59.15171875 128.29978149 -59.89035156 129.13896118 -60.65136719 130.00357056 C-96.45742058 171.40610439 -112.89907087 225.33282286 -109.19482422 279.66177368 C-105.07368396 324.19036822 -87.2200505 366.18232789 -56.72167969 398.96450806 C-54.68254905 401.16925336 -52.72787807 403.41891994 -50.78808594 405.71060181 C-18.19168925 443.11421588 35.5577373 462.11028159 83.58691406 465.46060181 C130.52314774 468.06721449 178.31394775 452.86128773 215.58691406 424.46060181 C216.46605469 423.79415649 217.34519531 423.12771118 218.25097656 422.44107056 C224.04242364 417.92741894 229.39803905 413.01764574 234.72753906 407.97622681 C241.85999932 401.70122079 246.9466487 400.08334886 256.29003906 400.18716431 C262.71036416 400.71965572 266.67960333 403.19474853 270.96191406 407.89810181 C276.34202806 414.37527816 276.32612807 421.36867247 275.58691406 429.46060181 C272.93081441 441.07850332 258.43028012 450.53551024 249.58691406 457.46060181 C248.59046875 458.26239868 247.59402344 459.06419556 246.56738281 459.89028931 C238.32731186 466.45741899 229.64402189 472.089697 220.58691406 477.46060181 C219.90032715 477.87310181 219.21374023 478.28560181 218.50634766 478.71060181 C193.52302661 493.61558943 166.04500049 502.91051674 137.58691406 508.46060181 C136.34603027 508.7105188 136.34603027 508.7105188 135.08007812 508.96548462 C73.82295276 520.73913824 7.35176692 505.28017901 -44.41308594 471.46060181 C-54.68669718 464.47643991 -64.38286464 456.99201088 -73.41308594 448.46060181 C-74.7417039 447.30930423 -76.07493311 446.16330303 -77.41308594 445.02310181 C-85.0391137 438.3484095 -91.89428929 431.14795241 -98.20605469 423.22232056 C-99.63797848 421.43051504 -101.09770322 419.66044767 -102.58886719 417.91763306 C-143.24433949 370.18536451 -160.29258355 303.9271094 -155.95092773 242.25650024 C-151.71454247 192.04408982 -132.12491108 140.42608474 -98.41308594 102.46060181 C-97.30900391 101.21150024 -97.30900391 101.21150024 -96.18261719 99.93716431 C-94.68230885 98.25867821 -93.17330171 96.58792288 -91.65527344 94.92544556 C-90.16465373 93.28680264 -88.69045136 91.63306866 -87.23339844 89.96450806 C-66.66020831 66.49935704 -39.3468983 48.94408841 -11.41308594 35.46060181 C-12.05826569 32.54378917 -12.70420413 29.62714808 -13.35058594 26.71060181 C-13.62418945 25.47310181 -13.62418945 25.47310181 -13.90332031 24.21060181 C-14.16918945 23.01177368 -14.16918945 23.01177368 -14.44042969 21.78872681 C-14.602771 21.05557251 -14.7651123 20.32241821 -14.93237305 19.56704712 C-15.25590835 18.14934137 -15.59777183 16.7357076 -15.95678711 15.3265686 C-16.84546226 11.69246256 -16.97224619 8.15763783 -16.41308594 4.46060181 C-12.39412246 -1.89195337 -6.75644112 -1.51027035 0 0 Z " fill="#0082FC" transform="translate(163.4130859375,0.539398193359375)"/>
<path d="M0 0 C5.95735496 -0.49644625 10.05600549 0.57029184 15 4 C19.63549453 8.31827526 22.62894801 12.6303302 23.3359375 19.05078125 C23.46597353 29.90878971 21.44878325 34.67941745 13.9375 42.4375 C8.58953746 47.65836452 2.88271895 52.3933415 -3 57 C-3.99644531 57.80179687 -4.99289062 58.60359375 -6.01953125 59.4296875 C-14.2596022 65.99681718 -22.94289217 71.6290952 -32 77 C-32.68658691 77.4125 -33.37317383 77.825 -34.08056641 78.25 C-59.06388746 93.15498762 -86.54191357 102.44991494 -115 108 C-115.82725586 108.16661133 -116.65451172 108.33322266 -117.50683594 108.50488281 C-173.48242798 119.26342279 -234.90386492 107.1935246 -284 79 C-280.61360715 77.87120238 -280.26564602 78.04074471 -277.17578125 79.40625 C-276.4070166 79.73463867 -275.63825195 80.06302734 -274.84619141 80.40136719 C-273.59201416 80.94519043 -273.59201416 80.94519043 -272.3125 81.5 C-253.8309878 89.16876152 -234.77165939 94.07524344 -215 97 C-213.86860596 97.17571533 -213.86860596 97.17571533 -212.71435547 97.35498047 C-188.17559277 101.04209529 -162.41596925 99.83254727 -138 96 C-136.66388672 95.79117188 -136.66388672 95.79117188 -135.30078125 95.578125 C-87.73214248 87.80594196 -33.68004198 62.46679888 -2 25 C1.85713733 19.34286525 2.66231307 12.21893428 1.609375 5.51171875 C1.14750104 3.65432561 0.58457564 1.82250052 0 0 Z " fill="#0072FB" transform="translate(416,401)"/>
<path d="M0 0 C7.84795309 4.52766524 11.85845969 8.96366527 14.25 17.875 C15.13000219 25.04073215 12.98203025 31.25221133 9.0625 37.1875 C3.70239484 42.30937827 -1.83291229 44.51467253 -9.234375 44.96875 C-15.88796207 44.72079023 -21.41807669 42.21892061 -26.2421875 37.6640625 C-30.82053198 32.2317263 -32.41051386 26.31459227 -32.0625 19.2890625 C-31.06784737 11.60537096 -27.82617428 6.65998724 -21.75 1.875 C-14.90546596 -2.20539529 -7.50187693 -2.25056308 0 0 Z " fill="#0693FC" transform="translate(490.75,264.125)"/>
<path d="M0 0 C5.4890263 4.09910119 8.6040637 9.67000662 9.8203125 16.359375 C10.53505717 22.67295288 8.94699612 27.90951305 5.8203125 33.359375 C1.27112841 38.62481361 -3.45855658 41.9287313 -10.4921875 42.5703125 C-17.46046511 42.84649423 -23.08995849 42.15327889 -28.3828125 37.3671875 C-34.32003247 31.02418631 -36.75586303 25.73883333 -36.55859375 17.01953125 C-35.71322153 11.08449534 -32.82550349 5.52299942 -28.4296875 1.421875 C-19.32194768 -4.35803681 -9.65005661 -5.39152961 0 0 Z " fill="#8BC9FE" transform="translate(396.1796875,56.640625)"/>
<path d="M0 0 C5.22440013 3.37298338 9.02397467 8.1150453 11.41796875 13.80078125 C12.72406086 22.78016452 11.80872611 28.94344175 6.73046875 36.48828125 C1.73213505 41.37554087 -3.72192525 43.84048013 -10.71875 44.3359375 C-18.06713953 44.03228504 -24.03869191 41.5217796 -29.08203125 36.23828125 C-33.51390758 29.89685049 -34.92679503 23.8656412 -34.08203125 16.23828125 C-32.20954334 9.09420318 -28.1616234 4.32530688 -22.08203125 0.23828125 C-15.34423916 -3.02194073 -6.88474569 -2.99521926 0 0 Z " fill="#C4E2FF" transform="translate(320.08203125,22.76171875)"/>
<path d="M0 0 C5.56140182 3.13444547 9.33113757 7.97452975 11.26171875 14.07421875 C12.48474369 20.76797888 11.91966328 27.05303418 8.625 33.0625 C4.20807871 38.31505504 -1.19218242 42.59904616 -8.16015625 43.37109375 C-16.40446606 43.69536338 -22.08625722 42.61345732 -28.375 37.0625 C-33.69736988 30.64615571 -35.13087145 24.26910434 -34.375 16.0625 C-32.92693959 10.09989833 -30.47541427 5.19219633 -25.31640625 1.6484375 C-17.08725918 -3.06521794 -8.78150742 -3.78422317 0 0 Z " fill="#0183FC" transform="translate(471.375,342.9375)"/>
<path d="M0 0 C6.22908925 3.75848001 10.17061736 9.06929945 12.15234375 16.046875 C13.35372673 23.04922152 12.08606517 28.88263038 8.01953125 34.68359375 C3.82050175 39.73818959 -0.82410858 42.99284691 -7.453125 43.80859375 C-15.04775582 43.96452216 -20.38294213 43.20497182 -26.4375 38.4375 C-31.44156748 33.43343252 -33.59306978 28.02325993 -33.875 21.0625 C-33.6646825 14.67410604 -32.13327242 9.41434821 -27.7890625 4.6171875 C-20.22891483 -2.21665777 -9.54776829 -4.29465253 0 0 Z " fill="#61B7FE" transform="translate(451.4375,111.5625)"/>
<path d="M0 0 C5.84449415 2.68198584 9.14521293 6.96429148 12.29296875 12.5 C14.4771255 19.51229274 14.49975508 25.8315532 11.54296875 32.625 C8.18368343 38.66978848 2.96131685 42.1522173 -3.51953125 44.3125 C-10.95733079 44.9846567 -17.40479172 44.93617329 -23.51953125 40.3125 C-28.49138673 35.94089131 -31.42145515 30.85831286 -32.51953125 24.3125 C-32.65217149 18.458644 -31.8882253 13.20253975 -28.51953125 8.3125 C-20.14125498 -0.11925463 -12.05382823 -3.28910662 0 0 Z " fill="#28A6FE" transform="translate(484.51953125,183.6875)"/>
<path d="M0 0 C-0.99 0.33 -1.98 0.66 -3 1 C-2.67 1.78375 -2.34 2.5675 -2 3.375 C0.02796312 10.7263663 -0.29946707 17.16962264 -3.734375 24.02734375 C-6.87245814 28.91849185 -11.63124772 31.91823891 -17 34 C-20.875 34.1875 -20.875 34.1875 -24 34 C-26.59302383 27.84156839 -27.24430799 21.67952019 -25.08984375 15.30859375 C-22.21588101 9.10785742 -19.22564421 4.86961956 -12.828125 2.0390625 C-8.46617009 0.44358235 -4.68964154 -0.36074166 0 0 Z " fill="#B2D9FE" transform="translate(386,53)"/>
<path d="M0 0 C3.33941164 5.41816186 2.66403555 11.88676547 2 18 C-0.35553899 24.52069806 -5.33972874 28.59794698 -11 32.3125 C-13.71073224 33.24431421 -16.15820829 33.12917235 -19 33 C-19.33 33.66 -19.66 34.32 -20 35 C-23.18710769 27.69621154 -24.38434269 21.45038634 -21.75 13.75 C-18.83112924 7.01927062 -15.03632752 4.03901598 -8.484375 0.9375 C-5.53700015 -0.17471692 -3.12294529 -0.41091385 0 0 Z " fill="#0493FC" transform="translate(460,341)"/>
<path d="M0 0 C3.74942509 5.62413764 3.91306931 11.39111737 3 18 C0.81012206 23.8396745 -3.70866524 28.75855256 -9 32 C-12.28070762 33.27103439 -15.57279855 34.21388136 -19 35 C-22.6099794 28.08087282 -23.28708342 21.34284189 -20.9375 13.8125 C-18.47021859 8.09026048 -14.00492725 3.69307736 -8.375 1.0625 C-5.32279732 0.10162138 -3.16080673 -0.28734607 0 0 Z " fill="#25A5FE" transform="translate(481,263)"/>
<path d="M0 0 C4.03219021 5.30299898 3.84569675 10.60848419 3 17 C0.69239954 24.02963474 -3.82658868 28.18420492 -10 32 C-13.21451269 33.60725635 -16.43612536 33.05748185 -20 33 C-22.72268653 26.94474517 -23.02551937 20.93627495 -21.34765625 14.49609375 C-18.75871809 7.9293021 -14.5976363 3.93043899 -8.4375 0.625 C-5.3936359 -0.15547797 -3.12389516 -0.47537535 0 0 Z " fill="#89C8FE" transform="translate(440,110)"/>
<path d="M0 0 C3.30921549 6.75631496 3.97802598 11.72011035 1.5 19 C-1.31281614 25.59002638 -6.43656134 30.18340624 -13 33 C-15.32495277 33.38749213 -17.65851268 33.72982839 -20 34 C-23.33168247 26.20725118 -23.62407606 19.87222818 -20.9375 11.8125 C-15.60206586 4.06751495 -9.45147254 -0.36351817 0 0 Z " fill="#5FB7FE" transform="translate(475,183)"/>
</svg>
