<?xml version="1.0" encoding="UTF-8"?>
<svg version="1.1" xmlns="http://www.w3.org/2000/svg" width="512" height="512">
<path d="M0 0 C0.71542969 -0.03738281 1.43085938 -0.07476562 2.16796875 -0.11328125 C9.08993728 1.00118636 14.28584339 5.19323688 19.07324219 10.05566406 C19.64344589 10.61885849 20.2136496 11.18205292 20.8011322 11.76231384 C22.66399831 13.60772259 24.51201868 15.46720009 26.359375 17.328125 C27.66057032 18.62662191 28.9623586 19.92452487 30.26470947 21.22186279 C32.9842913 23.93556612 35.69655505 26.65632344 38.40380859 29.38232422 C41.86238292 32.86368646 45.33860767 36.32677934 48.82053757 39.78476334 C51.50963841 42.45936188 54.18908022 45.14347441 56.8657608 47.83049774 C58.14337451 49.11076647 59.42392946 50.38810741 60.70754242 51.66236115 C62.50470231 53.44928265 64.28841378 55.24867106 66.06933594 57.05175781 C66.59408005 57.568405 67.11882416 58.08505219 67.6594696 58.61735535 C71.86738348 62.92205751 75.06351797 67.83193644 76.34375 73.78125 C76.3334375 74.4515625 76.323125 75.121875 76.3125 75.8125 C76.32796875 76.81796875 76.32796875 76.81796875 76.34375 77.84375 C74.36216828 87.05227683 68.05420818 92.52442966 61.5 98.8125 C54.21853246 105.79740743 54.21853246 105.79740743 47.39453125 113.21875 C42.05691736 119.47059324 36.05586345 125.12343919 30.20996094 130.89453125 C24.67360531 136.36639223 19.17619552 141.81012512 14.18432617 147.79516602 C10.31065325 152.07971437 6.02141406 153.1457895 0.5 153.5625 C-6.17754073 153.10978537 -9.67824402 151.17991888 -14.0625 146.3125 C-17.31355912 142.46371252 -18.34485276 139.52611268 -18.4375 134.5 C-18.47617187 133.25283203 -18.47617187 133.25283203 -18.515625 131.98046875 C-17.67563602 125.15055835 -13.2381645 120.95291677 -8.55078125 116.3828125 C-7.91134079 115.74761688 -7.27190033 115.11242126 -6.61308289 114.45797729 C-4.58236036 112.4439589 -2.54142593 110.44066273 -0.5 108.4375 C0.88415272 107.06840474 2.26762391 105.69862009 3.65039062 104.328125 C7.02992347 100.98155173 10.41865049 97.64455096 13.8125 94.3125 C6.72577739 94.79913111 0.00113487 95.71742661 -6.875 97.5 C-7.73875244 97.72284668 -8.60250488 97.94569336 -9.49243164 98.17529297 C-36.51848564 105.35599617 -60.12410981 118.94867014 -80.1875 138.3125 C-81.03957031 139.10140625 -81.89164062 139.8903125 -82.76953125 140.703125 C-109.75676538 166.37287211 -125.17285683 205.23430247 -126.390625 242.109375 C-127.01030793 281.14155577 -115.25375138 318.79694567 -89.1875 348.3125 C-88.34574219 349.28703125 -87.50398438 350.2615625 -86.63671875 351.265625 C-62.18297548 379.13850078 -25.3734476 398.37819199 11.8125 401.3125 C16.93780333 401.50587239 22.05927195 401.55815236 27.1875 401.5625 C28.25896774 401.56351212 28.25896774 401.56351212 29.3520813 401.56454468 C40.41279952 401.54795771 51.0522548 401.04215985 61.8125 398.3125 C62.51826172 398.13557617 63.22402344 397.95865234 63.95117188 397.77636719 C105.44506033 387.06050572 140.22720626 361.50368533 162.09765625 324.52734375 C174.67375627 302.36030495 181.05949066 277.2939636 182.0949707 251.91455078 C182.43465647 244.19767891 182.79210092 238.32299661 188.3984375 232.73046875 C194.23954919 228.25721233 200.75221122 228.48296215 207.8125 229.3125 C213.12744293 231.02087451 215.56857098 233.95636674 218.8125 238.3125 C227.83720001 256.36190002 216.6243448 291.6459171 210.67626953 309.81298828 C197.71682403 347.3140632 173.42186048 381.40413206 140.8125 404.3125 C140.22645996 404.72693359 139.64041992 405.14136719 139.03662109 405.56835938 C96.04766815 435.77372519 43.39355146 446.22514427 -8.1875 437.3125 C-28.6410239 433.56994031 -47.98482255 426.32113729 -66.1875 416.3125 C-66.81849609 415.96606445 -67.44949219 415.61962891 -68.09960938 415.26269531 C-81.77547469 407.64408125 -93.84621125 398.08152189 -105.1875 387.3125 C-105.68604492 386.84118652 -106.18458984 386.36987305 -106.69824219 385.88427734 C-139.39629485 354.76646491 -163.17429662 308.87183027 -164.34863281 263.14160156 C-164.36817288 261.6621722 -164.38193393 260.18265787 -164.390625 258.703125 C-164.39763931 257.9025769 -164.40465363 257.10202881 -164.41188049 256.27722168 C-164.42930225 253.70559004 -164.43573332 251.1341885 -164.4375 248.5625 C-164.43817474 247.68501099 -164.43884949 246.80752197 -164.43954468 245.90344238 C-164.42393185 233.14644526 -164.09069185 220.78914401 -161.1875 208.3125 C-161.01589355 207.54212402 -160.84428711 206.77174805 -160.66748047 205.97802734 C-150.8918635 162.97055432 -127.07051432 123.54689394 -92.1875 96.3125 C-91.65302246 95.89097656 -91.11854492 95.46945313 -90.56787109 95.03515625 C-61.06162083 71.93063963 -27.70859057 60.66074683 8.8125 54.3125 C7.69222412 53.21578979 7.69222412 53.21578979 6.54931641 52.09692383 C3.77229381 49.37432769 1.00531493 46.64171152 -1.75878906 43.90600586 C-2.95497757 42.72487495 -4.15384864 41.54645425 -5.35546875 40.37084961 C-7.08530921 38.67752482 -8.8051692 36.97458789 -10.5234375 35.26953125 C-11.05995941 34.74849319 -11.59648132 34.22745514 -12.14926147 33.69062805 C-16.50433422 29.33752752 -18.46317766 25.64805309 -18.5625 19.5 C-18.43229915 14.35323717 -17.33336703 10.42773303 -14.1875 6.3125 C-9.93858515 2.43053689 -5.83354113 0.19617218 0 0 Z " fill="#858589" transform="translate(228.1875,35.6875)"/>
</svg>
