<?xml version="1.0" encoding="UTF-8"?>
<svg version="1.1" xmlns="http://www.w3.org/2000/svg" width="512" height="512">
<path d="M0 0 C14.51077155 12.68859197 25.75912496 29.14284527 32.55078125 47.23046875 C32.87949219 46.38226563 33.20820313 45.5340625 33.546875 44.66015625 C45.08707753 16.20057818 67.23845474 -7.47920508 95.55078125 -19.76953125 C131.86900014 -34.18978782 175.32623083 -35.86199319 211.84179688 -20.82617188 C216.5539153 -18.72397122 221.0757947 -16.33366118 225.55078125 -13.76953125 C226.53175781 -13.21523438 227.51273437 -12.6609375 228.5234375 -12.08984375 C258.03076524 5.65700948 276.11284569 35.45458645 284.55078125 68.23046875 C284.86619873 69.44814941 284.86619873 69.44814941 285.18798828 70.69042969 C297.43193939 120.34483792 281.33896286 171.48567739 259.36328125 215.85546875 C258.75746216 217.08136719 258.75746216 217.08136719 258.1394043 218.33203125 C255.83243856 222.92049223 253.35010756 227.25862626 250.4753418 231.51708984 C249.31333884 233.34600683 249.31333884 233.34600683 249.55078125 236.23046875 C251.01025066 237.83154245 251.01025066 237.83154245 252.98828125 239.35546875 C272.90927917 256.23054959 285.70721933 279.04823826 288.55078125 305.23046875 C289.99835955 335.88222959 284.04699599 363.56591292 263.03613281 386.91357422 C256.51764291 393.90675001 249.81286303 400.33019956 241.55078125 405.23046875 C240.65431885 405.76365723 240.65431885 405.76365723 239.73974609 406.30761719 C215.11498857 420.72594147 187.34747068 425.01623027 159.55078125 418.23046875 C137.75661729 412.51874027 120.73994801 400.6246801 105.55078125 384.23046875 C105.22078125 383.57046875 104.89078125 382.91046875 104.55078125 382.23046875 C100.31601523 383.70753 96.88434311 385.93252088 93.23828125 388.48046875 C83.68749518 394.9863747 73.70215793 400.73378826 63.66699219 406.45361328 C61.59681163 407.63402492 59.52971771 408.81986709 57.46582031 410.01123047 C54.52431058 411.70555902 51.57115562 413.3774089 48.61328125 415.04296875 C47.732771 415.55263184 46.85226074 416.06229492 45.94506836 416.58740234 C40.60796355 419.54785565 35.76009922 421.68314853 29.55078125 421.23046875 C26.82358302 420.29973479 24.81154694 419.43945479 22.36328125 418.04296875 C21.3580542 417.50373779 21.3580542 417.50373779 20.33251953 416.95361328 C18.8568876 416.15827268 17.38669602 415.35277624 15.92138672 414.53857422 C13.43041594 413.1640509 10.91781342 411.83730318 8.3984375 410.515625 C-21.66400803 394.61505153 -50.38622559 375.08709276 -76.44921875 353.23046875 C-78.281967 351.7505772 -80.1153134 350.27142615 -81.94921875 348.79296875 C-86.7433176 344.87425456 -91.33163363 340.76696756 -95.88671875 336.57421875 C-98.10606151 334.54433208 -100.35593909 332.56551377 -102.63671875 330.60546875 C-106.09715512 327.60406986 -109.30222674 324.39872136 -112.51171875 321.1328125 C-114.28168353 319.39496402 -116.09828874 317.80648588 -118.01171875 316.23046875 C-121.22065571 313.54307459 -123.86077098 310.55207206 -126.56640625 307.3671875 C-129.24562793 304.32665999 -132.13542746 301.51996776 -135.04296875 298.69921875 C-148.58156956 284.80896597 -160.38750306 269.12024632 -171.44921875 253.23046875 C-171.89749023 252.58899902 -172.34576172 251.9475293 -172.80761719 251.28662109 C-194.04308191 220.71944762 -210.85632386 186.20406175 -219.26171875 149.85546875 C-219.5541748 148.59198608 -219.5541748 148.59198608 -219.85253906 147.30297852 C-222.77139527 133.9480531 -223.86280686 120.79162056 -223.82421875 107.16796875 C-223.82334259 106.40522644 -223.82246643 105.64248413 -223.82156372 104.85662842 C-223.67847695 66.90050972 -210.58532187 30.50019022 -183.6015625 3.3125 C-135.62138511 -43.3328599 -50.08126801 -42.2892744 0 0 Z M-163.44921875 16.23046875 C-164.42117187 17.00777344 -165.393125 17.78507812 -166.39453125 18.5859375 C-186.81364727 35.61046413 -197.05232162 65.71361946 -200.44921875 91.23046875 C-200.60261719 92.37773437 -200.75601563 93.525 -200.9140625 94.70703125 C-204.38677879 129.90242555 -192.6855755 165.99904688 -177.44921875 197.23046875 C-176.86479004 198.4520166 -176.86479004 198.4520166 -176.26855469 199.69824219 C-166.22567551 220.52640672 -153.08942298 240.33688581 -138.44921875 258.23046875 C-137.73121094 259.12636719 -137.01320313 260.02226562 -136.2734375 260.9453125 C-134.02451953 263.72949692 -131.74038035 266.48094087 -129.44921875 269.23046875 C-128.620271 270.23110352 -127.79132324 271.23173828 -126.93725586 272.26269531 C-119.53927837 281.09743432 -111.64689381 289.34339739 -103.47631836 297.46411133 C-101.37832367 299.55132067 -99.2913276 301.64910465 -97.20507812 303.74804688 C-90.6382478 310.32098867 -84.07137534 316.66596865 -76.74682617 322.39819336 C-74.33155247 324.3243042 -72.07903632 326.36987825 -69.82421875 328.48046875 C-63.4743361 334.25036212 -56.63115638 339.3561798 -49.76855469 344.49365234 C-48.22503944 345.64950155 -46.68400782 346.80867498 -45.14550781 347.97119141 C-27.83120286 361.05010601 -9.74858007 372.79651179 8.98925781 383.73242188 C10.75586242 384.76557913 12.5179854 385.80642478 14.27636719 386.85351562 C16.98082143 388.45919584 19.700428 390.03558099 22.42578125 391.60546875 C23.25207031 392.10062988 24.07835937 392.59579102 24.9296875 393.10595703 C25.70957031 393.54665527 26.48945313 393.98735352 27.29296875 394.44140625 C27.97214355 394.83634277 28.65131836 395.2312793 29.35107422 395.63818359 C34.17291891 396.93649605 38.81534106 393.69587518 42.9375 391.39453125 C43.9493335 390.83064697 44.96116699 390.2667627 46.00366211 389.68579102 C47.07108643 389.08178467 48.13851074 388.47777832 49.23828125 387.85546875 C50.34373291 387.232771 51.44918457 386.61007324 52.58813477 385.96850586 C65.97277321 378.36910536 79.11209317 370.31167033 91.55078125 361.23046875 C91.14085937 359.98652344 90.7309375 358.74257813 90.30859375 357.4609375 C89.76395425 355.78006733 89.21970443 354.09907086 88.67578125 352.41796875 C88.40636719 351.60392578 88.13695312 350.78988281 87.859375 349.95117188 C81.3314955 329.65105879 80.98747561 306.58426026 87.55078125 286.23046875 C87.75977051 285.58223145 87.96875977 284.93399414 88.18408203 284.26611328 C93.60329007 268.15462511 102.50240278 255.07321485 114.55078125 243.23046875 C115.31261719 242.46992188 116.07445312 241.709375 116.859375 240.92578125 C136.3474372 222.54621433 163.58082309 214.3843406 189.9296875 214.98046875 C201.68019593 215.47408389 212.65067266 218.2801646 223.671875 222.2421875 C226.35875303 223.33869715 226.35875303 223.33869715 228.55078125 223.23046875 C244.56441752 194.53590674 257.09097857 166.55617553 263.55078125 134.23046875 C263.92203125 132.47476563 263.92203125 132.47476563 264.30078125 130.68359375 C270.2590732 97.41646372 262.9448687 62.20463935 244.4609375 34.046875 C227.78417906 10.85622899 205.67172202 -1.44202302 177.71875 -6.45703125 C147.60310691 -10.85080289 114.45134761 -7.51999442 88.8984375 10.0546875 C86.71643522 11.7145012 84.62987343 13.44426455 82.55078125 15.23046875 C81.90109375 15.73707031 81.25140625 16.24367188 80.58203125 16.765625 C58.84242591 34.32121899 48.33221268 64.44939548 44.55078125 91.23046875 C44.38919965 92.7697634 44.23833589 94.31021702 44.09765625 95.8515625 C44.02498535 96.61436523 43.95231445 97.37716797 43.87744141 98.16308594 C43.7465341 99.62683881 43.63563737 101.09257054 43.54833984 102.55957031 C43.2147511 106.37332594 42.61004761 108.15793525 40.16015625 111.15625 C37.06609687 113.6157493 35.49730815 114.23046875 31.55078125 114.23046875 C27.45702647 113.05091229 25.22218303 112.28122047 22.8984375 108.64453125 C21.28740262 104.5632429 20.96301022 101.00891979 20.67578125 96.66796875 C18.41885819 70.84998348 9.77317657 44.94327153 -7.44921875 25.23046875 C-7.98933594 24.54726562 -8.52945313 23.8640625 -9.0859375 23.16015625 C-23.92421582 4.83685857 -48.15152161 -4.30911874 -70.94921875 -7.14453125 C-103.30106966 -10.43813261 -138.32095995 -6.01203594 -163.44921875 16.23046875 Z M150.55078125 245.23046875 C149.63941406 245.64941406 148.72804688 246.06835938 147.7890625 246.5 C139.8309124 250.43934106 133.76716471 256.02280392 127.55078125 262.23046875 C126.80699219 262.96265625 126.06320312 263.69484375 125.296875 264.44921875 C109.82633329 280.67663628 104.98179748 301.49488082 105.28125 323.28515625 C105.85721975 341.18845229 113.44911577 358.10361614 125.55078125 371.23046875 C126.32292969 372.08253906 127.09507812 372.93460938 127.890625 373.8125 C139.69081861 386.24651128 154.79667814 393.88962081 171.55078125 397.23046875 C172.66453125 397.45734375 173.77828125 397.68421875 174.92578125 397.91796875 C196.80701874 399.80428233 217.99175936 395.28816089 235.2109375 381.02734375 C237.70958019 378.81135295 240.13609705 376.53728046 242.55078125 374.23046875 C243.49050781 373.40289062 243.49050781 373.40289062 244.44921875 372.55859375 C256.64678977 361.40968268 264.44405227 342.83534759 265.77001953 326.53540039 C266.73219656 303.85982664 262.31845329 282.44011477 246.55078125 265.23046875 C245.72707031 264.32683594 244.90335938 263.42320312 244.0546875 262.4921875 C238.10747713 256.25816131 232.06731425 251.42343958 224.55078125 247.23046875 C223.76316406 246.77027344 222.97554688 246.31007813 222.1640625 245.8359375 C200.21440224 233.82711511 172.72133931 234.40875579 150.55078125 245.23046875 Z " fill="white" transform="translate(223.44921875,60.76953125)"/>
<path d="M0 0 C3.11131768 1.86679061 4.6312313 3.18462561 6.12890625 6.49609375 C7.29231213 11.17580259 7.21400783 15.57542408 7.125 20.375 C7.11597656 21.30183594 7.10695313 22.22867187 7.09765625 23.18359375 C7.07422937 25.45600077 7.04142748 27.7278618 7 30 C7.96039185 29.97643433 7.96039185 29.97643433 8.94018555 29.95239258 C11.85586631 29.88982885 14.77140555 29.85094192 17.6875 29.8125 C18.69490234 29.78736328 19.70230469 29.76222656 20.74023438 29.73632812 C27.23427533 29.67203069 30.874831 30.19812435 35.8125 34.625 C37.68742512 38.37485024 37.77259442 41.90312317 37 46 C35.06658451 49.57052209 32.91644101 51.69451966 29 53 C27.29983156 53.08178114 25.59663703 53.10749501 23.89453125 53.09765625 C22.91162109 53.09443359 21.92871094 53.09121094 20.91601562 53.08789062 C19.89185547 53.07951172 18.86769531 53.07113281 17.8125 53.0625 C16.25885742 53.05573242 16.25885742 53.05573242 14.67382812 53.04882812 C12.11582734 53.0370401 9.55794267 53.02058515 7 53 C7.02356567 53.85380249 7.02356567 53.85380249 7.04760742 54.72485352 C7.11048439 57.33729874 7.14915532 59.9495841 7.1875 62.5625 C7.21263672 63.45775391 7.23777344 64.35300781 7.26367188 65.27539062 C7.33415863 71.68968515 6.82365256 76.97465797 2.25 81.875 C-0.92164439 83.4608222 -3.45475029 83.87775001 -7 84 C-11.14971186 82.48375913 -13.82681316 80.88886065 -16 77 C-17.37361356 72.13590267 -17.11104487 67.19509028 -17.0625 62.1875 C-17.05798828 61.30384766 -17.05347656 60.42019531 -17.04882812 59.50976562 C-17.03709866 57.33981441 -17.01916495 55.16989828 -17 53 C-17.96039185 53.02356567 -17.96039185 53.02356567 -18.94018555 53.04760742 C-21.85586631 53.11017115 -24.77140555 53.14905808 -27.6875 53.1875 C-29.19860352 53.22520508 -29.19860352 53.22520508 -30.74023438 53.26367188 C-40.07251203 53.35607066 -40.07251203 53.35607066 -44 50 C-47.16955197 46.06538376 -47.53348798 42.97922113 -47 38 C-45.17229366 33.76741689 -43.19134482 31.85752782 -39 30 C-35.22186472 29.63448251 -31.4786519 29.71790312 -27.6875 29.8125 C-26.14739258 29.83280273 -26.14739258 29.83280273 -24.57617188 29.85351562 C-22.05024091 29.88876117 -19.5253934 29.938033 -17 30 C-17.02320313 28.70964844 -17.04640625 27.41929687 -17.0703125 26.08984375 C-17.08908236 24.37240166 -17.10728125 22.65495326 -17.125 20.9375 C-17.14175781 20.08994141 -17.15851563 19.24238281 -17.17578125 18.36914062 C-17.21589503 13.1744059 -16.8445156 8.87883819 -15 4 C-10.11532678 -0.75942518 -6.61058974 -1.48168391 0 0 Z " fill="white" transform="translate(414,337)"/>
</svg>
